<svg width="23" height="23" viewBox="0 0 23 23" fill="none" xmlns="http://www.w3.org/2000/svg">
<g clip-path="url(#clip0_1253_3037)">
<path d="M13.8237 3.0462H13.1362C12.8171 3.0462 12.5111 3.17296 12.2854 3.39859C12.0598 3.62422 11.933 3.93024 11.933 4.24933V9.2337H4.67304C4.54959 8.46714 4.15739 7.76952 3.56664 7.26568C2.97588 6.76183 2.22511 6.48464 1.44867 6.4837C1.31192 6.4837 1.18077 6.53803 1.08407 6.63473C0.987369 6.73143 0.933044 6.86258 0.933044 6.99933C0.933044 7.13608 0.987369 7.26723 1.08407 7.36393C1.18077 7.46063 1.31192 7.51495 1.44867 7.51495C2.04126 7.51495 2.60958 7.75036 3.02861 8.16939C3.44764 8.58841 3.68304 9.15674 3.68304 9.74933C3.68509 11.5265 4.39197 13.2303 5.64861 14.4869C6.90524 15.7435 8.60902 16.4504 10.3862 16.4525H13.8237C15.6014 16.4525 17.3064 15.7462 18.5635 14.4892C19.8206 13.2321 20.5268 11.5271 20.5268 9.74933C20.5268 7.97155 19.8206 6.26658 18.5635 5.0095C17.3064 3.75242 15.6014 3.0462 13.8237 3.0462ZM19.4706 9.2337H13.9182L18.0277 5.94659C18.8537 6.85601 19.3603 8.01014 19.4706 9.2337ZM13.1362 4.07745H13.8237C15.0663 4.07603 16.2746 4.48474 17.2612 5.24019L12.9643 8.67769V4.24933C12.9643 4.20374 12.9824 4.16003 13.0146 4.12779C13.0469 4.09556 13.0906 4.07745 13.1362 4.07745ZM13.8237 15.4212H10.3862C8.97161 15.4195 7.6086 14.89 6.56386 13.9364C5.51911 12.9827 4.86784 11.6735 4.7375 10.265H19.4723C19.342 11.6735 18.6907 12.9827 17.646 13.9364C16.6012 14.89 15.2382 15.4195 13.8237 15.4212ZM8.83929 19.3743C8.83929 19.6123 8.76873 19.8449 8.63653 20.0427C8.50433 20.2406 8.31643 20.3948 8.09659 20.4859C7.87674 20.5769 7.63483 20.6008 7.40145 20.5543C7.16807 20.5079 6.95369 20.3933 6.78543 20.2251C6.61717 20.0568 6.50258 19.8424 6.45616 19.609C6.40974 19.3757 6.43357 19.1338 6.52463 18.9139C6.61569 18.6941 6.7699 18.5062 6.96775 18.374C7.1656 18.2418 7.39821 18.1712 7.63617 18.1712C7.95526 18.1712 8.26128 18.298 8.48691 18.5236C8.71254 18.7492 8.83929 19.0552 8.83929 19.3743ZM17.7768 19.3743C17.7768 19.6123 17.7062 19.8449 17.574 20.0427C17.4418 20.2406 17.2539 20.3948 17.0341 20.4859C16.8142 20.5769 16.5723 20.6008 16.339 20.5543C16.1056 20.5079 15.8912 20.3933 15.7229 20.2251C15.5547 20.0568 15.4401 19.8424 15.3937 19.609C15.3472 19.3757 15.3711 19.1338 15.4621 18.9139C15.5532 18.6941 15.7074 18.5062 15.9052 18.374C16.1031 18.2418 16.3357 18.1712 16.5737 18.1712C16.8928 18.1712 17.1988 18.298 17.4244 18.5236C17.65 18.7492 17.7768 19.0552 17.7768 19.3743Z" fill="#3D4C5E"/>
</g>
<defs>
<clipPath id="clip0_1253_3037">
<rect width="22" height="22" fill="white" transform="translate(0.0736694 0.124329)"/>
</clipPath>
</defs>
</svg>
