<svg width="21" height="24" viewBox="0 0 21 24" fill="none" xmlns="http://www.w3.org/2000/svg">
<path d="M4.25899 12.744C4.25899 12.6844 4.25899 12.6545 4.26046 12.6294C4.28319 12.24 4.56169 11.9298 4.91127 11.9045C4.93388 11.9028 4.96066 11.9028 5.01421 11.9028H16.0596C16.1131 11.9028 16.1399 11.9028 16.1625 11.9045C16.5121 11.9298 16.7906 12.24 16.8133 12.6294C16.8148 12.6545 16.8148 12.6844 16.8148 12.744C16.8148 13.0514 16.8148 13.2051 16.805 13.3772C16.6594 15.9316 14.7103 18.1857 12.424 18.4436C12.27 18.461 12.1801 18.4647 12.0004 18.4722C11.4884 18.4937 10.9898 18.5068 10.5369 18.5068C10.084 18.5068 9.58541 18.4937 9.07332 18.4722C8.89364 18.4647 8.80381 18.461 8.6498 18.4436C6.36351 18.1857 4.41435 15.9316 4.2688 13.3772C4.25899 13.2051 4.25899 13.0514 4.25899 12.744Z" stroke="#3D4C5E" stroke-width="0.933513"/>
<path d="M6.35162 18.1183L5.65407 19.6721" stroke="#3D4C5E" stroke-width="0.933513" stroke-linecap="round"/>
<path d="M14.722 18.1183L15.4196 19.6721" stroke="#3D4C5E" stroke-width="0.933513" stroke-linecap="round"/>
<path d="M3.56153 11.9028H17.5124" stroke="#3D4C5E" stroke-width="0.933513" stroke-linecap="round"/>
<path d="M3.79223 12.6798C3.79223 12.9376 4.00121 13.1465 4.25899 13.1465C4.51677 13.1465 4.72575 12.9376 4.72575 12.6798H3.79223ZM7.46751 5.29837L7.9068 5.14061V5.14061L7.46751 5.29837ZM7.73196 6.03475L7.95444 6.44507L7.73196 6.03475ZM6.60422 7.39065L7.04274 7.55054L6.60422 7.39065ZM9.54429 5.98091L9.34373 6.40238L9.54429 5.98091ZM6.59269 9.37125L6.15265 9.52692C6.19683 9.65181 6.29201 9.75204 6.41444 9.80263C6.53688 9.85322 6.67504 9.8494 6.79449 9.79213L6.59269 9.37125ZM10.7506 7.37757L10.9524 7.79844C11.1674 7.69534 11.2701 7.44672 11.1906 7.2219L10.7506 7.37757ZM4.72575 12.6798V5.98661H3.79223V12.6798H4.72575ZM5.92275 4.60024C6.38152 4.60024 6.83341 4.91368 7.02822 5.45613L7.9068 5.14061C7.59628 4.27596 6.82462 3.66673 5.92275 3.66673V4.60024ZM4.72575 5.98661C4.72575 5.17234 5.30771 4.60024 5.92275 4.60024V3.66673C4.70005 3.66673 3.79223 4.75397 3.79223 5.98661H4.72575ZM7.02822 5.45613L7.29267 6.19251L8.17125 5.87699L7.9068 5.14061L7.02822 5.45613ZM7.03272 9.21558C6.85145 8.70318 6.8401 8.10632 7.04274 7.55054L6.1657 7.23077C5.88637 7.99689 5.90151 8.817 6.15265 9.52692L7.03272 9.21558ZM10.5488 6.95669L6.39088 8.95038L6.79449 9.79213L10.9524 7.79844L10.5488 6.95669ZM9.34373 6.40238C9.786 6.61283 10.1291 7.02032 10.3105 7.53324L11.1906 7.2219C10.9396 6.51249 10.4444 5.8923 9.74484 5.55944L9.34373 6.40238ZM7.04274 7.55054C7.23282 7.02917 7.57069 6.65315 7.95444 6.44507L7.50948 5.62443C6.91244 5.94816 6.42865 6.50956 6.1657 7.23077L7.04274 7.55054ZM7.95444 6.44507C8.38405 6.21213 8.88103 6.18221 9.34373 6.40238L9.74484 5.55944C8.99723 5.20369 8.18586 5.25768 7.50948 5.62443L7.95444 6.44507Z" fill="#3D4C5E"/>
</svg>
