<svg width="21" height="23" viewBox="0 0 21 23" fill="none" xmlns="http://www.w3.org/2000/svg">
<path d="M15.4197 17.0573V15.9449M5.6541 17.0573V15.9449" stroke="#3D4C5E" stroke-width="0.92244" stroke-linecap="round"/>
<path d="M3.56146 13.3491C3.56146 12.658 3.56146 12.3124 3.66766 12.0399C3.80925 11.6764 4.08084 11.3877 4.42267 11.2371C4.67905 11.1242 5.00406 11.1242 5.65409 11.1242H15.4197C16.0697 11.1242 16.3948 11.1242 16.6511 11.2371C16.993 11.3877 17.2646 11.6764 17.4061 12.0399C17.5123 12.3124 17.5123 12.658 17.5123 13.3491C17.5123 14.0402 17.5123 14.3858 17.4061 14.6583C17.2646 15.0218 16.993 15.3105 16.6511 15.4611C16.3948 15.574 16.0697 15.574 15.4197 15.574H5.65409C5.00406 15.574 4.67905 15.574 4.42267 15.4611C4.08084 15.3105 3.80925 15.0218 3.66766 14.6583C3.56146 14.3858 3.56146 14.0402 3.56146 13.3491Z" stroke="#3D4C5E" stroke-width="0.92244"/>
<path d="M16.8147 11.1243C16.8147 8.32746 16.8147 6.92904 15.9975 6.06018C15.1803 5.19131 13.865 5.19131 11.2344 5.19131H9.83928C7.20867 5.19131 5.89337 5.19131 5.07615 6.06018C4.25893 6.92904 4.25893 8.32746 4.25893 11.1243" stroke="#3D4C5E" stroke-width="0.92244"/>
<path d="M15.0709 11.1242V10.0118C15.0709 8.61336 15.0709 7.91415 14.6623 7.47972C14.2537 7.04529 13.596 7.04529 12.2807 7.04529H8.793C7.4777 7.04529 6.82005 7.04529 6.41143 7.47972C6.00282 7.91415 6.00282 8.61336 6.00282 10.0118V11.1242" stroke="#3D4C5E" stroke-width="0.92244"/>
<path d="M10.5371 7.41617V11.1243" stroke="#3D4C5E" stroke-width="0.92244"/>
</svg>
