<svg width="22" height="23" viewBox="0 0 22 23" fill="none" xmlns="http://www.w3.org/2000/svg">
<path d="M20.1016 6.55159L15.5736 2.02354C15.4619 1.91181 15.3292 1.82318 15.1833 1.76271C15.0373 1.70224 14.8808 1.67111 14.7228 1.67111C14.5648 1.67111 14.4083 1.70224 14.2624 1.76271C14.1164 1.82318 13.9838 1.91181 13.872 2.02354L1.89836 13.9955C1.78663 14.1072 1.69799 14.2399 1.63752 14.3858C1.57705 14.5318 1.54593 14.6883 1.54593 14.8463C1.54593 15.0043 1.57705 15.1607 1.63752 15.3067C1.69799 15.4527 1.78663 15.5853 1.89836 15.6971L6.42641 20.2251C6.53813 20.3368 6.67077 20.4255 6.81674 20.4859C6.96272 20.5464 7.11918 20.5775 7.27719 20.5775C7.43519 20.5775 7.59165 20.5464 7.73763 20.4859C7.88361 20.4255 8.01625 20.3368 8.12797 20.2251L20.1016 8.25315C20.2134 8.14143 20.302 8.00879 20.3625 7.86281C20.4229 7.71684 20.4541 7.56038 20.4541 7.40237C20.4541 7.24436 20.4229 7.0879 20.3625 6.94193C20.302 6.79595 20.2134 6.66331 20.1016 6.55159ZM19.372 7.52354L7.39922 19.4955C7.38326 19.5115 7.3643 19.5242 7.34344 19.5328C7.32257 19.5415 7.3002 19.5459 7.27762 19.5459C7.25503 19.5459 7.23266 19.5415 7.2118 19.5328C7.19093 19.5242 7.17198 19.5115 7.15602 19.4955L2.62797 14.9683C2.61199 14.9523 2.59931 14.9334 2.59066 14.9125C2.58201 14.8917 2.57756 14.8693 2.57756 14.8467C2.57756 14.8241 2.58201 14.8018 2.59066 14.7809C2.59931 14.76 2.61199 14.7411 2.62797 14.7251L5.5 11.8531L7.88563 14.2387C7.93283 14.2894 7.98976 14.33 8.05301 14.3582C8.11625 14.3864 8.18453 14.4015 8.25377 14.4027C8.323 14.404 8.39177 14.3912 8.45597 14.3653C8.52018 14.3393 8.5785 14.3007 8.62746 14.2518C8.67643 14.2028 8.71503 14.1445 8.74096 14.0803C8.76689 14.0161 8.77963 13.9473 8.77841 13.8781C8.77719 13.8089 8.76203 13.7406 8.73385 13.6773C8.70567 13.6141 8.66503 13.5572 8.61438 13.5099L6.22875 11.1243L8.25 9.10307L10.6356 11.4887C10.7334 11.5798 10.8627 11.6294 10.9962 11.627C11.1298 11.6246 11.2573 11.5705 11.3517 11.4761C11.4462 11.3816 11.5003 11.2541 11.5027 11.1206C11.505 10.987 11.4555 10.8577 11.3644 10.7599L8.97875 8.37432L11 6.35393L13.3856 8.7387C13.4834 8.82978 13.6127 8.87936 13.7462 8.87701C13.8798 8.87465 14.0073 8.82053 14.1017 8.72606C14.1962 8.63159 14.2503 8.50414 14.2527 8.37056C14.255 8.23698 14.2055 8.10769 14.1144 8.00995L11.7296 5.62432L14.6008 2.75315C14.6167 2.73717 14.6357 2.72449 14.6566 2.71584C14.6774 2.7072 14.6998 2.70274 14.7224 2.70274C14.745 2.70274 14.7673 2.7072 14.7882 2.71584C14.8091 2.72449 14.828 2.73717 14.844 2.75315L19.372 7.28034C19.388 7.2963 19.4007 7.31526 19.4093 7.33612C19.418 7.35699 19.4224 7.37935 19.4224 7.40194C19.4224 7.42453 19.418 7.44689 19.4093 7.46776C19.4007 7.48862 19.388 7.50758 19.372 7.52354Z" fill="#3D4C5E"/>
</svg>
