<svg width="23" height="23" viewBox="0 0 23 23" fill="none" xmlns="http://www.w3.org/2000/svg">
<g clip-path="url(#clip0_1253_3041)">
<path d="M9.75024 13.7394C10.7078 13.1967 11.4587 12.3523 11.8859 11.338C12.3132 10.3237 12.3927 9.19647 12.1121 8.13222C11.8314 7.06798 11.2064 6.12655 10.3346 5.4548C9.46273 4.78305 8.39305 4.41876 7.29243 4.41876C6.19181 4.41876 5.12214 4.78305 4.25029 5.4548C3.37844 6.12655 2.75344 7.06798 2.47281 8.13222C2.19217 9.19647 2.27168 10.3237 2.69892 11.338C3.12616 12.3523 3.87711 13.1967 4.83462 13.7394C3.05999 14.3052 1.53595 15.4679 0.521417 17.0299C0.446659 17.1445 0.42046 17.284 0.448583 17.4179C0.476706 17.5517 0.556848 17.6689 0.671378 17.7437C0.785908 17.8184 0.925444 17.8446 1.05929 17.8165C1.19314 17.7884 1.31033 17.7082 1.38509 17.5937C2.02499 16.6098 2.90048 15.8014 3.9321 15.2417C4.96372 14.6821 6.11878 14.3889 7.29243 14.3889C8.46608 14.3889 9.62115 14.6821 10.6528 15.2417C11.6844 15.8014 12.5599 16.6098 13.1998 17.5937C13.2794 17.6957 13.3945 17.7641 13.5222 17.7852C13.6499 17.8063 13.7809 17.7786 13.8891 17.7076C13.9973 17.6366 14.0749 17.5275 14.1064 17.402C14.1379 17.2764 14.121 17.1436 14.0592 17.0299C13.0457 15.4686 11.5233 14.306 9.75024 13.7394ZM3.33931 9.40557C3.33931 8.62371 3.57115 7.85942 4.00553 7.20933C4.4399 6.55924 5.0573 6.05256 5.77964 5.75336C6.50198 5.45416 7.29682 5.37587 8.06365 5.5284C8.83048 5.68093 9.53486 6.05743 10.0877 6.61029C10.6406 7.16314 11.0171 7.86752 11.1696 8.63435C11.3221 9.40118 11.2438 10.196 10.9446 10.9184C10.6454 11.6407 10.1388 12.2581 9.48867 12.6925C8.83858 13.1268 8.07429 13.3587 7.29243 13.3587C6.24442 13.3573 5.23972 12.9404 4.49866 12.1993C3.7576 11.4583 3.34067 10.4536 3.33931 9.40557ZM21.4721 17.7415C21.3577 17.8162 21.2183 17.8424 21.0845 17.8143C20.9508 17.7863 20.8336 17.7063 20.7588 17.592C20.1201 16.608 19.2452 15.7996 18.214 15.2403C17.1828 14.681 16.028 14.3887 14.8549 14.3899C14.7182 14.3899 14.587 14.3356 14.4903 14.2389C14.3936 14.1422 14.3393 14.0111 14.3393 13.8743C14.3393 13.7376 14.3936 13.6064 14.4903 13.5097C14.587 13.413 14.7182 13.3587 14.8549 13.3587C15.4371 13.3581 16.0119 13.229 16.5383 12.9805C17.0647 12.732 17.5298 12.3703 17.9003 11.9213C18.2707 11.4723 18.5374 10.947 18.6814 10.3829C18.8253 9.81885 18.8428 9.22997 18.7328 8.65834C18.6228 8.0867 18.3878 7.54643 18.0448 7.07611C17.7018 6.60579 17.2591 6.21703 16.7484 5.93761C16.2377 5.65819 15.6717 5.49501 15.0906 5.45972C14.5095 5.42443 13.9279 5.5179 13.3871 5.73346C13.3241 5.75925 13.2567 5.77231 13.1886 5.7719C13.1206 5.77149 13.0533 5.75762 12.9906 5.73107C12.928 5.70453 12.8712 5.66585 12.8235 5.61725C12.7759 5.56865 12.7383 5.51111 12.713 5.44793C12.6878 5.38476 12.6752 5.3172 12.6762 5.24915C12.6771 5.18111 12.6915 5.11392 12.7185 5.05147C12.7456 4.98901 12.7847 4.93253 12.8337 4.88527C12.8826 4.83801 12.9405 4.80092 13.0038 4.77612C14.1767 4.30851 15.4834 4.30347 16.6598 4.76202C17.8363 5.22058 18.7949 6.10854 19.342 7.24654C19.889 8.38455 19.9838 9.68777 19.6072 10.8929C19.2305 12.0981 18.4105 13.1154 17.3127 13.7394C19.0874 14.3052 20.6114 15.4679 21.6259 17.0299C21.6997 17.1448 21.7249 17.2841 21.6961 17.4175C21.6672 17.5509 21.5867 17.6674 21.4721 17.7415Z" fill="#3D4C5E"/>
</g>
<defs>
<clipPath id="clip0_1253_3041">
<rect width="22" height="22" fill="white" transform="translate(0.0736847 0.124329)"/>
</clipPath>
</defs>
</svg>
